<svg width="223" height="29" viewBox="0 0 223 29" fill="none" xmlns="http://www.w3.org/2000/svg">
<path d="M0 27.95V0.469996H13.77C15.0363 0.454242 16.2945 0.674682 17.48 1.12001C18.5648 1.51361 19.5607 2.11863 20.41 2.9C21.2247 3.66934 21.8716 4.59879 22.31 5.63C22.7772 6.7266 23.0121 7.9081 23 9.1C23.013 10.2694 22.7778 11.4282 22.31 12.5C21.8597 13.518 21.2064 14.4333 20.39 15.19C19.5401 15.9657 18.544 16.5641 17.46 16.95C16.2781 17.3808 15.0279 17.5942 13.77 17.58H5.69V27.95H0ZM13.14 5.38H5.69V12.88H13.14C14.2314 12.945 15.3059 12.5868 16.14 11.88C16.5111 11.5357 16.8032 11.1153 16.9966 10.6476C17.1899 10.1798 17.2798 9.67575 17.26 9.16999C17.2779 8.66299 17.1872 8.15802 16.9941 7.68891C16.8009 7.21981 16.5097 6.79741 16.14 6.45001C15.321 5.71044 14.2422 5.32567 13.14 5.38V5.38Z" fill="white"/>
<path d="M38.46 28.34C36.7604 28.3673 35.0751 28.0261 33.52 27.34C32.0537 26.6764 30.7525 25.6962 29.71 24.47C28.614 23.151 27.7822 21.6334 27.26 20C26.6498 18.1245 26.3492 16.1621 26.37 14.19C26.3507 12.231 26.6513 10.2821 27.26 8.41999C27.7828 6.77967 28.622 5.25767 29.73 3.93999C30.7816 2.71744 32.0891 1.74106 33.56 1.07999C35.1017 0.395884 36.7735 0.0546908 38.46 0.0799917C40.1797 0.0442899 41.8863 0.385618 43.46 1.07999C44.9257 1.74016 46.2269 2.7169 47.27 3.93999C48.3644 5.26374 49.196 6.7843 49.72 8.41999C50.3253 10.2826 50.6225 12.2316 50.6 14.19C50.6254 16.1602 50.3351 18.1217 49.74 20C49.2263 21.6371 48.3937 23.1563 47.29 24.47C46.2379 25.6945 44.9307 26.6741 43.46 27.34C41.8863 28.0344 40.1797 28.3757 38.46 28.34V28.34ZM38.46 23.67C39.4399 23.6954 40.4107 23.4754 41.2839 23.0301C42.1572 22.5847 42.9052 21.9281 43.46 21.12C44.801 19.0412 45.4454 16.5895 45.3 14.12C45.4256 11.6843 44.7743 9.27159 43.44 7.23C42.8721 6.43326 42.1221 5.78375 41.2524 5.33561C40.3827 4.88746 39.4184 4.65365 38.44 4.65365C37.4616 4.65365 36.4974 4.88746 35.6276 5.33561C34.7579 5.78375 34.0079 6.43326 33.44 7.23C32.2282 9.33494 31.5904 11.7212 31.5904 14.15C31.5904 16.5788 32.2282 18.9651 33.44 21.07C33.9875 21.8936 34.7356 22.5643 35.6138 23.0192C36.492 23.474 37.4714 23.698 38.46 23.67V23.67Z" fill="white"/>
<path d="M69.94 25.98L60.44 7.73001V27.95H55.18V0.470001H62.48L70.01 15.23L77.55 0.470001H84.85V27.95H79.47V7.77L69.94 25.98Z" fill="white"/>
<path d="M101.54 28.34C99.8405 28.3673 98.1551 28.0261 96.6 27.34C95.1337 26.6764 93.8325 25.6962 92.79 24.47C91.694 23.1511 90.8622 21.6334 90.34 20C89.7298 18.1245 89.4292 16.1622 89.45 14.19C89.4307 12.2311 89.7313 10.2821 90.34 8.42001C90.8628 6.77968 91.702 5.25769 92.81 3.94001C93.8616 2.71746 95.1691 1.74108 96.64 1.08001C98.1817 0.395902 99.8535 0.0547082 101.54 0.080009C103.243 0.0515932 104.932 0.392765 106.49 1.08001C107.956 1.74018 109.257 2.71692 110.3 3.94001C111.394 5.26376 112.226 6.78432 112.75 8.42001C113.355 10.2827 113.653 12.2316 113.63 14.19C113.655 16.1602 113.365 18.1217 112.77 20C112.26 21.6386 111.427 23.1584 110.32 24.47C109.268 25.6945 107.961 26.6741 106.49 27.34C104.932 28.0273 103.243 28.3684 101.54 28.34ZM101.54 23.67C102.52 23.6954 103.491 23.4755 104.364 23.0301C105.237 22.5847 105.985 21.9281 106.54 21.12C107.881 19.0412 108.525 16.5895 108.38 14.12C108.506 11.6843 107.854 9.27161 106.52 7.23002C105.952 6.43328 105.202 5.78377 104.332 5.33562C103.463 4.88748 102.498 4.65366 101.52 4.65366C100.542 4.65366 99.5774 4.88748 98.7076 5.33562C97.8379 5.78377 97.0879 6.43328 96.52 7.23002C95.3082 9.33495 94.6704 11.7212 94.6704 14.15C94.6704 16.5788 95.3082 18.9651 96.52 21.07C97.0675 21.8936 97.8156 22.5644 98.6938 23.0192C99.5719 23.474 100.551 23.698 101.54 23.67V23.67Z" fill="white"/>
<path d="M116.5 5.48999V0.48999H140.68V5.48999H131.46V27.95H125.76V5.48999H116.5Z" fill="white"/>
<path d="M155.6 28.34C153.88 28.3757 152.174 28.0344 150.6 27.34C149.134 26.6764 147.833 25.6962 146.79 24.47C145.698 23.1486 144.866 21.6317 144.34 20C143.733 18.1239 143.436 16.1616 143.46 14.19C143.437 12.2316 143.735 10.2826 144.34 8.42C144.863 6.77968 145.702 5.25768 146.81 3.94C147.862 2.71746 149.169 1.74107 150.64 1.08C152.195 0.407141 153.871 0.0599976 155.565 0.0599976C157.259 0.0599976 158.935 0.407141 160.49 1.08C161.956 1.74017 163.257 2.71692 164.3 3.94C165.398 5.26136 166.23 6.78264 166.75 8.42C167.359 10.2821 167.659 12.2311 167.64 14.19C167.662 16.1607 167.368 18.1222 166.77 20C166.26 21.6385 165.427 23.1584 164.32 24.47C163.268 25.6945 161.961 26.6741 160.49 27.34C158.95 28.0191 157.283 28.3601 155.6 28.34ZM155.6 23.67C156.58 23.6963 157.551 23.4768 158.425 23.0313C159.298 22.5859 160.046 21.9288 160.6 21.12C161.944 19.0424 162.592 16.5906 162.45 14.12C162.573 11.6832 161.918 9.27042 160.58 7.23001C160.012 6.43327 159.262 5.78376 158.392 5.33562C157.523 4.88747 156.558 4.65366 155.58 4.65366C154.602 4.65366 153.637 4.88747 152.768 5.33562C151.898 5.78376 151.148 6.43327 150.58 7.23001C149.374 9.33691 148.74 11.7224 148.74 14.15C148.74 16.5776 149.374 18.9631 150.58 21.07C151.128 21.8929 151.876 22.5632 152.754 23.0179C153.632 23.4727 154.612 23.697 155.6 23.67V23.67Z" fill="white"/>
<path d="M172.32 27.95V0.470012H185.74C187.044 0.4553 188.34 0.668511 189.57 1.10002C190.672 1.48324 191.69 2.07388 192.57 2.84002C193.419 3.58539 194.101 4.50217 194.57 5.53001C195.047 6.62037 195.286 7.8 195.27 8.99002C195.29 10.6511 194.774 12.2744 193.8 13.62C192.816 14.9749 191.462 16.0166 189.9 16.62L195.94 27.95H189.58L184.2 17.43H178V27.95H172.32ZM185.23 5.38002H178.01V12.75H185.23C186.346 12.8133 187.444 12.4566 188.31 11.75C188.676 11.4094 188.968 10.9969 189.168 10.5384C189.368 10.0799 189.471 9.58513 189.471 9.08502C189.471 8.5849 189.368 8.09015 189.168 7.63163C188.968 7.17311 188.676 6.76066 188.31 6.42001C187.45 5.69907 186.351 5.32784 185.23 5.38002Z" fill="white"/>
<path d="M210.71 28.34C209.007 28.3684 207.318 28.0273 205.76 27.34C204.295 26.6786 202.997 25.698 201.96 24.47C200.861 23.1516 200.026 21.634 199.5 20C198.893 18.1239 198.596 16.1616 198.62 14.19C198.597 12.2316 198.895 10.2826 199.5 8.42C200.007 6.76083 200.836 5.21801 201.94 3.88C202.992 2.65746 204.299 1.68107 205.77 1.02C207.325 0.347143 209.001 0 210.695 0C212.389 0 214.065 0.347143 215.62 1.02C217.089 1.67491 218.391 2.65247 219.43 3.88C220.531 5.20069 221.367 6.72197 221.89 8.36C222.491 10.2236 222.788 12.1719 222.77 14.13C222.791 16.0998 222.5 18.0606 221.91 19.94C221.393 21.5779 220.557 23.0971 219.45 24.41C218.399 25.6362 217.092 26.616 215.62 27.28C214.079 27.9825 212.404 28.3441 210.71 28.34V28.34ZM210.71 23.67C211.69 23.6963 212.661 23.4768 213.535 23.0313C214.408 22.5859 215.156 21.9288 215.71 21.12C217.055 19.0424 217.702 16.5906 217.56 14.12C217.688 11.6827 217.032 9.2684 215.69 7.23001C215.122 6.43327 214.372 5.78376 213.502 5.33562C212.633 4.88747 211.668 4.65366 210.69 4.65366C209.712 4.65366 208.747 4.88747 207.878 5.33562C207.008 5.78376 206.258 6.43327 205.69 7.23001C204.484 9.33691 203.85 11.7224 203.85 14.15C203.85 16.5776 204.484 18.9631 205.69 21.07C206.238 21.8929 206.986 22.5632 207.864 23.0179C208.742 23.4727 209.722 23.697 210.71 23.67V23.67Z" fill="white"/>
</svg>
