<svg width="224" height="29" viewBox="0 0 224 29" fill="none" xmlns="http://www.w3.org/2000/svg">
<path fill-rule="evenodd" clip-rule="evenodd" d="M206.05 27.46C207.609 28.1451 209.297 28.4862 211 28.46C212.717 28.4726 214.417 28.1109 215.98 27.4C217.448 26.7348 218.752 25.755 219.8 24.53C220.907 23.2171 221.743 21.6979 222.26 20.06C222.85 18.1806 223.141 16.2198 223.12 14.25C223.143 12.2916 222.845 10.3427 222.24 8.48C221.717 6.84196 220.881 5.32068 219.78 4C218.743 2.77492 217.444 1.79767 215.98 1.14C214.424 0.466888 212.746 0.119629 211.05 0.119629C209.354 0.119629 207.676 0.466888 206.12 1.14C204.653 1.80232 203.349 2.77863 202.3 4C201.171 5.33241 200.318 6.87553 199.79 8.53999C199.185 10.4026 198.887 12.3516 198.91 14.31C198.886 16.2816 199.183 18.2439 199.79 20.12C200.316 21.754 201.151 23.2716 202.25 24.59C203.287 25.818 204.585 26.7986 206.05 27.46ZM213.823 23.1476C212.95 23.5928 211.98 23.8136 211 23.79C210.019 23.82 209.047 23.6021 208.173 23.1563C207.299 22.7105 206.552 22.0514 206 21.24C204.788 19.1351 204.15 16.7488 204.15 14.32C204.15 11.8912 204.788 9.50493 206 7.39999C206.547 6.58286 207.293 5.91829 208.168 5.46872C209.042 5.01915 210.017 4.79936 211 4.83C211.982 4.80678 212.954 5.0298 213.827 5.47873C214.7 5.92766 215.447 6.58817 216 7.39999C217.317 9.4299 217.961 11.8233 217.84 14.24C217.981 16.709 217.337 19.1592 216 21.24C215.444 22.0468 214.696 22.7024 213.823 23.1476ZM33.79 27.46C35.3637 28.1544 37.0703 28.4957 38.79 28.46C40.4877 28.4796 42.1695 28.1316 43.72 27.44C45.1907 26.7741 46.4979 25.7945 47.55 24.57C48.6567 23.2584 49.4898 21.7386 50 20.1C50.6052 18.2233 50.9057 16.2618 50.89 14.29C50.9093 12.331 50.6087 10.3821 50 8.52C49.4816 6.86775 48.646 5.33244 47.54 4C46.4969 2.77692 45.1957 1.80017 43.73 1.14C42.1752 0.467133 40.4991 0.119995 38.805 0.119995C37.1109 0.119995 35.4347 0.467133 33.88 1.14C32.4091 1.80107 31.1016 2.77745 30.05 4C28.9267 5.32703 28.077 6.86319 27.55 8.52C26.9447 10.3827 26.6475 12.3316 26.67 14.29C26.646 16.2616 26.9432 18.224 27.55 20.1C28.0763 21.7317 28.9077 23.2486 30 24.57C31.0347 25.8011 32.3289 26.7881 33.79 27.46ZM41.6145 23.1513C40.7411 23.5968 39.7701 23.8163 38.79 23.79C37.8016 23.817 36.8224 23.5927 35.9444 23.1379C35.0664 22.6832 34.3182 22.0129 33.77 21.19C32.564 19.0831 31.9296 16.6976 31.9296 14.27C31.9296 11.8424 32.564 9.45689 33.77 7.35001C34.3379 6.55327 35.0879 5.90376 35.9576 5.45561C36.8274 5.00746 37.7916 4.77365 38.77 4.77365C39.7484 4.77365 40.7126 5.00746 41.5824 5.45561C42.4521 5.90376 43.2021 6.55327 43.77 7.35001C45.1078 9.39041 45.7627 11.8032 45.64 14.24C45.7824 16.7106 45.1345 19.1624 43.79 21.24C43.2358 22.0488 42.4879 22.7059 41.6145 23.1513ZM0.320007 0.589981V28.07L6.00001 28.05V17.68H14.1C15.3578 17.6925 16.6076 17.4791 17.79 17.05C18.8709 16.6638 19.8637 16.0654 20.71 15.29C21.5264 14.5333 22.1797 13.618 22.63 12.6C23.0978 11.5282 23.333 10.3694 23.32 9.19998C23.3321 8.00807 23.0972 6.82658 22.63 5.72998C22.1916 4.69876 21.5447 3.76932 20.73 2.99998C19.879 2.22577 18.8832 1.62762 17.8 1.23999C16.618 0.794525 15.3631 0.574066 14.1 0.589981H0.320007ZM6.00001 5.49998H13.47C14.5691 5.44612 15.6446 5.83101 16.46 6.56999C16.8318 6.91576 17.1244 7.33788 17.3178 7.80739C17.5111 8.27689 17.6005 8.78264 17.58 9.28998C17.6025 9.79605 17.5138 10.3009 17.3203 10.7691C17.1268 11.2373 16.8332 11.6574 16.46 12C15.6269 12.7086 14.5517 13.067 13.46 13H6.00001V5.49998ZM70.27 26.1L60.77 7.85001V28.07H55.51V0.589996H62.81L70.35 15.35L77.88 0.589996H85.18V28.07H79.81V7.89L70.27 26.1ZM96.87 27.46C98.4436 28.1544 100.15 28.4957 101.87 28.46C103.553 28.4801 105.22 28.1391 106.76 27.46C108.231 26.7941 109.538 25.8145 110.59 24.59C111.697 23.2784 112.53 21.7585 113.04 20.12C113.638 18.2422 113.932 16.2807 113.91 14.31C113.929 12.351 113.629 10.4021 113.02 8.53999C112.5 6.90263 111.668 5.38136 110.57 4.06C109.527 2.83691 108.226 1.86017 106.76 1.2C105.205 0.52713 103.529 0.179993 101.835 0.179993C100.141 0.179993 98.4647 0.52713 96.91 1.2C95.4391 1.86107 94.1316 2.83745 93.08 4.06C91.972 5.37767 91.1328 6.89967 90.61 8.53999C90.0047 10.4026 89.7075 12.3516 89.73 14.31C89.706 16.2816 90.0032 18.2439 90.61 20.12C91.1363 21.7517 91.9677 23.2685 93.06 24.59C94.1025 25.8162 95.4037 26.7964 96.87 27.46ZM104.695 23.1513C103.821 23.5968 102.85 23.8163 101.87 23.79C100.882 23.817 99.9024 23.5927 99.0244 23.1379C98.1464 22.6832 97.3982 22.0129 96.85 21.19C95.644 19.0831 95.0096 16.6976 95.0096 14.27C95.0096 11.8424 95.644 9.45689 96.85 7.35001C97.4178 6.55327 98.1679 5.90376 99.0376 5.45561C99.9073 5.00746 100.872 4.77365 101.85 4.77365C102.828 4.77365 103.793 5.00746 104.662 5.45561C105.532 5.90376 106.282 6.55327 106.85 7.35001C108.188 9.39041 108.843 11.8032 108.72 14.24C108.862 16.7106 108.214 19.1624 106.87 21.24C106.316 22.0488 105.568 22.7059 104.695 23.1513ZM116.82 5.60999V0.609985H141V5.60999H131.78V28.07H126.09V5.60999H116.82ZM150.97 27.46C152.528 28.1472 154.217 28.4884 155.92 28.46C157.62 28.4873 159.305 28.1461 160.86 27.46C162.332 26.796 163.639 25.8162 164.69 24.59C165.797 23.2771 166.633 21.7579 167.15 20.12C167.74 18.2406 168.031 16.2798 168.01 14.31C168.028 12.3519 167.731 10.4036 167.13 8.53999C166.607 6.90196 165.771 5.38068 164.67 4.06C163.631 2.83246 162.329 1.8549 160.86 1.2C159.305 0.52713 157.629 0.179993 155.935 0.179993C154.241 0.179993 152.565 0.52713 151.01 1.2C149.539 1.86107 148.232 2.83745 147.18 4.06C146.072 5.37767 145.233 6.89967 144.71 8.53999C144.105 10.4026 143.807 12.3516 143.83 14.31C143.806 16.2816 144.103 18.2439 144.71 20.12C145.236 21.754 146.071 23.2716 147.17 24.59C148.207 25.818 149.505 26.7986 150.97 27.46ZM158.745 23.1513C157.871 23.5968 156.9 23.8163 155.92 23.79C154.932 23.8161 153.953 23.5913 153.075 23.1367C152.197 22.682 151.449 22.0123 150.9 21.19C149.694 19.0831 149.06 16.6976 149.06 14.27C149.06 11.8424 149.694 9.45689 150.9 7.35001C151.468 6.55327 152.218 5.90376 153.088 5.45561C153.957 5.00746 154.922 4.77365 155.9 4.77365C156.878 4.77365 157.843 5.00746 158.712 5.45561C159.582 5.90376 160.332 6.55327 160.9 7.35001C162.242 9.3884 162.898 11.8027 162.77 14.24C162.912 16.7106 162.265 19.1624 160.92 21.24C160.366 22.0488 159.618 22.7059 158.745 23.1513ZM172.64 28.07V0.589996H186.07C187.37 0.57605 188.663 0.789246 189.89 1.22C190.991 1.60435 192.01 2.19487 192.89 2.96001C193.737 3.70702 194.419 4.62338 194.89 5.64999C195.37 6.73959 195.612 7.91927 195.6 9.11C195.616 10.7721 195.097 12.3953 194.12 13.74C193.136 15.0948 191.782 16.1366 190.22 16.74L196.3 28.05H189.94L184.56 17.53H178.36V28.05L172.64 28.07ZM185.56 5.5H178.33V12.87H185.56C186.675 12.9295 187.773 12.5731 188.64 11.87C189.004 11.5278 189.293 11.1149 189.491 10.6565C189.689 10.1982 189.791 9.70425 189.791 9.205C189.791 8.70575 189.689 8.21178 189.491 7.75346C189.293 7.29515 189.004 6.8822 188.64 6.53999C187.778 5.82251 186.68 5.45174 185.56 5.5Z" fill="#404041"/>
</svg>
