<svg width="378" height="48" viewBox="0 0 378 48" fill="none" xmlns="http://www.w3.org/2000/svg">
<path fill-rule="evenodd" clip-rule="evenodd" d="M56.87 46.2636C59.5094 47.438 62.3714 48.0281 65.26 47.9937C68.1487 48.0281 71.0106 47.438 73.65 46.2636C76.1422 45.1369 78.3575 43.478 80.14 41.4036C82.0156 39.1741 83.4296 36.5942 84.3 33.8137C85.3045 30.6282 85.7973 27.3035 85.76 23.9636C85.7958 20.6437 85.2892 17.3403 84.26 14.1837C83.3721 11.4106 81.9598 8.83398 80.1 6.59363C78.3358 4.51666 76.1329 2.85687 73.65 1.73364C71.013 0.590088 68.1693 0 65.295 0C62.4207 0 59.577 0.590088 56.94 1.73364C54.4483 2.86121 52.2332 4.5199 50.45 6.59363C48.5698 8.82483 47.1462 11.4037 46.26 14.1837C44.2599 20.5742 44.2599 27.4232 46.26 33.8137C47.1393 36.5903 48.5525 39.1686 50.42 41.4036C52.1794 43.4857 54.3835 45.1465 56.87 46.2636ZM70.0708 38.9923C68.5826 39.7487 66.9287 40.1204 65.26 40.0736C63.5962 40.1246 61.9465 39.7545 60.464 38.9976C58.9815 38.2406 57.7143 37.1213 56.78 35.7437C54.7 32.7637 53.6567 28.837 53.65 23.9636C53.6434 19.0903 54.6867 15.197 56.78 12.2836C57.7067 10.9034 58.9674 9.78003 60.4447 9.01776C61.9221 8.25549 63.5682 7.87909 65.23 7.92365C66.8964 7.88525 68.546 8.26392 70.0287 9.02539C71.5115 9.78687 72.7804 10.9069 73.72 12.2836C75.8534 15.097 76.9167 18.9903 76.91 23.9636C76.9034 28.937 75.86 32.8636 73.78 35.7437C72.8342 37.1192 71.559 38.236 70.0708 38.9923Z" fill="#F17300"/>
<path fill-rule="evenodd" clip-rule="evenodd" d="M0 0.733643V47.3336L9.65 47.3036V29.7236H23.36C25.4933 29.7481 27.6137 29.389 29.62 28.6636C31.4683 28.0034 33.1676 26.9838 34.62 25.6636C36.0135 24.3883 37.1241 22.8348 37.88 21.1036C38.6646 19.2892 39.0598 17.3304 39.04 15.3536C39.0606 13.3316 38.6658 11.3268 37.88 9.46362C37.1364 7.71283 36.0364 6.13599 34.65 4.83362C33.1978 3.51324 31.4984 2.49359 29.65 1.83362C27.6379 1.08673 25.5062 0.713928 23.36 0.733643H0ZM9.65 9.05365H22.26C24.0934 8.97137 25.8867 9.6062 27.26 10.8236C27.89 11.412 28.3858 12.1293 28.7137 12.9265C29.0415 13.7238 29.1938 14.5823 29.16 15.4436C29.1968 16.3009 29.0458 17.1559 28.7176 17.9487C28.3894 18.7416 27.8919 19.4531 27.26 20.0336C25.8784 21.2338 24.0882 21.8568 22.26 21.7736H9.65V9.05365Z" fill="#F17300"/>
<path d="M118.61 44.0036L102.5 13.0036V47.2836H93.58V0.683655H105.96L118.74 25.6837L131.52 0.683655H143.9V47.2836H134.78V13.1136L118.61 44.0036Z" fill="#F17300"/>
<path fill-rule="evenodd" clip-rule="evenodd" d="M163.81 46.2636C166.446 47.438 169.305 48.0283 172.19 47.9937C175.079 48.0281 177.941 47.438 180.58 46.2636C183.074 45.1395 185.289 43.4802 187.07 41.4036C188.948 39.176 190.363 36.5955 191.23 33.8137C192.235 30.6282 192.727 27.3035 192.69 23.9636C192.726 20.6437 192.219 17.3403 191.19 14.1837C190.306 11.4113 188.897 8.83453 187.04 6.59363C185.272 4.51648 183.066 2.85675 180.58 1.73364C177.943 0.590088 175.099 0 172.225 0C169.351 0 166.507 0.590088 163.87 1.73364C161.378 2.86121 159.163 4.5199 157.38 6.59363C155.503 8.82721 154.08 11.4053 153.19 14.1837C151.19 20.5742 151.19 27.4232 153.19 33.8137C154.074 36.5886 155.486 39.166 157.35 41.4036C159.113 43.4859 161.321 45.1466 163.81 46.2636ZM177.001 38.9923C175.513 39.7487 173.859 40.1204 172.19 40.0736C170.531 40.1196 168.888 39.747 167.411 38.9902C165.934 38.2335 164.672 37.1169 163.74 35.7437C161.66 32.7637 160.617 28.837 160.61 23.9636C160.603 19.0903 161.647 15.197 163.74 12.2836C164.667 10.9034 165.927 9.78003 167.405 9.01776C168.882 8.25549 170.528 7.87909 172.19 7.92365C173.856 7.88525 175.506 8.26392 176.989 9.02539C178.471 9.78687 179.74 10.9069 180.68 12.2836C182.78 15.097 183.833 18.9903 183.84 23.9636C183.847 28.937 182.803 32.8636 180.71 35.7437C179.764 37.1192 178.489 38.236 177.001 38.9923Z" fill="#F17300"/>
<path d="M197.55 9.28363V0.763611H238.55V9.28363H222.91V47.3636H213.26V9.28363H197.55Z" fill="#F17300"/>
<path fill-rule="evenodd" clip-rule="evenodd" d="M255.46 46.2836C258.1 47.4526 260.963 48.036 263.85 47.9937C266.744 48.0389 269.613 47.4554 272.26 46.2836C274.743 45.1557 276.948 43.4967 278.72 41.4236C280.602 39.1985 282.017 36.6172 282.88 33.8336C283.893 30.6498 284.389 27.3244 284.35 23.9836C284.386 20.6637 283.879 17.3602 282.85 14.2036C281.958 11.4324 280.546 8.85651 278.69 6.61365C276.922 4.5365 274.716 2.87671 272.23 1.7536C269.594 0.61145 266.752 0.0222168 263.88 0.0222168C261.008 0.0222168 258.166 0.61145 255.53 1.7536C253.037 2.8786 250.821 4.53778 249.04 6.61365C247.16 8.84668 245.733 11.4247 244.84 14.2036C242.84 20.5941 242.84 27.4431 244.84 33.8336C245.728 36.6068 247.14 39.1836 249 41.4236C250.765 43.5037 252.972 45.164 255.46 46.2836ZM268.661 38.9923C267.173 39.7487 265.519 40.1204 263.85 40.0736C262.19 40.1185 260.545 39.7455 259.067 38.9889C257.589 38.2323 256.324 37.1164 255.39 35.7437C253.303 32.7637 252.26 28.837 252.26 23.9636C252.26 19.0903 253.303 15.197 255.39 12.2836C256.353 10.9357 257.624 9.83704 259.097 9.07904C260.57 8.32104 262.203 7.92566 263.86 7.92566C265.517 7.92566 267.15 8.32104 268.623 9.07904C270.096 9.83704 271.367 10.9357 272.33 12.2836C274.437 15.097 275.49 18.9903 275.49 23.9636C275.49 28.937 274.45 32.8636 272.37 35.7437C271.424 37.1192 270.149 38.236 268.661 38.9923Z" fill="#F17300"/>
<path fill-rule="evenodd" clip-rule="evenodd" d="M292.2 47.3336V0.733643H314.96C317.169 0.710327 319.365 1.07239 321.45 1.80365C323.329 2.46185 325.062 3.48096 326.55 4.80365C327.973 6.06586 329.106 7.62158 329.87 9.36365C330.685 11.2086 331.094 13.207 331.07 15.2236C331.103 18.0397 330.23 20.7917 328.58 23.0736C326.909 25.3849 324.607 27.1658 321.95 28.2036L332.26 47.3336H321.49L312.37 29.4937H301.85V47.3336H292.2ZM314.1 9.05365H301.85V21.5736H314.1C315.995 21.6658 317.856 21.0491 319.32 19.8436C319.942 19.2644 320.438 18.5633 320.777 17.7839C321.117 17.0045 321.292 16.1636 321.292 15.3137C321.292 14.4637 321.117 13.6228 320.777 12.8434C320.438 12.064 319.942 11.3629 319.32 10.7836C317.856 9.57819 315.995 8.96149 314.1 9.05365Z" fill="#F17300"/>
<path fill-rule="evenodd" clip-rule="evenodd" d="M348.87 46.2636C351.509 47.4395 354.371 48.0297 357.26 47.9937C360.145 48.0283 363.004 47.438 365.64 46.2636C368.135 45.142 370.352 43.4824 372.13 41.4036C374.012 39.1785 375.427 36.5972 376.29 33.8137C377.303 30.6299 377.799 27.3044 377.76 23.9636C377.796 20.6437 377.289 17.3403 376.26 14.1837C375.368 11.4124 373.956 8.83649 372.1 6.59363C370.332 4.51648 368.126 2.85675 365.64 1.73364C363.004 0.591492 360.162 0.00219727 357.29 0.00219727C354.418 0.00219727 351.576 0.591492 348.94 1.73364C346.447 2.85864 344.231 4.51776 342.45 6.59363C340.57 8.82666 339.143 11.4048 338.25 14.1837C336.263 20.5762 336.263 27.4211 338.25 33.8137C339.138 36.5869 340.55 39.1636 342.41 41.4036C344.175 43.4837 346.382 45.144 348.87 46.2636ZM362.071 38.9923C360.583 39.7487 358.929 40.1204 357.26 40.0736C355.607 40.1118 353.97 39.7355 352.499 38.9792C351.029 38.223 349.771 37.1107 348.84 35.7437C346.747 32.7637 345.703 28.837 345.71 23.9636C345.717 19.0903 346.76 15.197 348.84 12.2836C349.803 10.9357 351.074 9.83704 352.547 9.07904C354.021 8.32104 355.653 7.92566 357.31 7.92566C358.967 7.92566 360.6 8.32104 362.073 9.07904C363.546 9.83704 364.817 10.9357 365.78 12.2836C367.86 15.097 368.9 18.9903 368.9 23.9636C368.9 28.937 367.86 32.8636 365.78 35.7437C364.834 37.1192 363.559 38.236 362.071 38.9923Z" fill="#F17300"/>
</svg>
