<svg width="84" height="21" viewBox="0 0 84 21" fill="none" xmlns="http://www.w3.org/2000/svg">
<path fill-rule="evenodd" clip-rule="evenodd" d="M24.5618 19.981C25.7017 20.4882 26.9378 20.7431 28.1854 20.7282C29.433 20.7431 30.669 20.4882 31.809 19.981C32.8854 19.4943 33.8421 18.7779 34.612 17.882C35.422 16.919 36.0327 15.8048 36.4086 14.6039C36.8425 13.2281 37.0553 11.7922 37.0392 10.3497C37.0547 8.91587 36.8359 7.48915 36.3914 6.12583C36.0079 4.92819 35.3979 3.81534 34.5947 2.84775C33.8327 1.95072 32.8813 1.23387 31.809 0.748749C30.6701 0.254855 29.4419 0 28.2005 0C26.9591 0 25.7309 0.254855 24.592 0.748749C23.5159 1.23574 22.5592 1.95212 21.789 2.84775C20.977 3.81139 20.3622 4.92518 19.9794 6.12583C19.1156 8.88585 19.1156 11.8439 19.9794 14.6039C20.3592 15.8031 20.9695 16.9167 21.7761 17.882C22.536 18.7812 23.4879 19.4985 24.5618 19.981ZM30.2631 16.8405C29.6204 17.1672 28.9061 17.3277 28.1854 17.3075C27.4668 17.3296 26.7543 17.1697 26.114 16.8428C25.4737 16.5159 24.9264 16.0325 24.5229 15.4375C23.6246 14.1504 23.174 12.4545 23.1711 10.3497C23.1682 8.24497 23.6188 6.56347 24.5229 5.30522C24.9232 4.70913 25.4676 4.22393 26.1057 3.89471C26.7438 3.5655 27.4547 3.40293 28.1724 3.42217C28.8921 3.40559 29.6046 3.56913 30.245 3.89801C30.8854 4.22689 31.4334 4.71063 31.8392 5.30522C32.7606 6.52029 33.2198 8.20179 33.2169 10.3497C33.2141 12.4977 32.7635 14.1936 31.8651 15.4375C31.4566 16.0315 30.9059 16.5139 30.2631 16.8405Z" fill="#F17300"/>
<path fill-rule="evenodd" clip-rule="evenodd" d="M0 0.316856V20.4431L4.16778 20.4301V12.8375H10.089C11.0104 12.848 11.9262 12.6929 12.7927 12.3796C13.591 12.0945 14.3249 11.6541 14.9522 11.084C15.554 10.5332 16.0337 9.86222 16.3601 9.11453C16.699 8.3309 16.8697 7.48488 16.8611 6.63114C16.87 5.75784 16.6995 4.89199 16.3601 4.08728C16.039 3.33112 15.5639 2.65009 14.9651 2.08761C14.3379 1.51735 13.604 1.07697 12.8056 0.791928C11.9366 0.469352 11.016 0.308341 10.089 0.316856H0ZM4.16778 3.91021H9.61396C10.4058 3.87468 11.1803 4.14886 11.7734 4.67465C12.0455 4.92877 12.2596 5.23856 12.4013 5.58288C12.5429 5.9272 12.6086 6.29799 12.594 6.67C12.6099 7.04026 12.5447 7.40952 12.4029 7.75194C12.2612 8.09437 12.0463 8.40168 11.7734 8.6524C11.1767 9.17076 10.4035 9.43982 9.61396 9.40389H4.16778V3.91021Z" fill="#F17300"/>
<path d="M51.2269 19.0049L44.2691 5.61617V20.4215H40.4166V0.295266H45.7635L51.2831 11.0926L56.8027 0.295266H62.1495V20.4215H58.2106V5.6637L51.2269 19.0049Z" fill="#F17300"/>
<path fill-rule="evenodd" clip-rule="evenodd" d="M70.7485 19.981C71.8869 20.4882 73.1216 20.7431 74.3678 20.7282C75.6154 20.7431 76.8514 20.4882 77.9914 19.981C79.0684 19.4955 80.0254 18.7788 80.7944 17.882C81.6056 16.9199 82.2165 15.8054 82.591 14.6039C83.0249 13.2281 83.2377 11.7922 83.2216 10.3497C83.2371 8.91587 83.0182 7.48915 82.5738 6.12583C82.1918 4.92845 81.5833 3.81558 80.7814 2.84775C80.0178 1.95064 79.065 1.23381 77.9914 0.748749C76.8525 0.254855 75.6243 0 74.3829 0C73.1415 0 71.9133 0.254855 70.7744 0.748749C69.6983 1.23574 68.7416 1.95212 67.9714 2.84775C67.1609 3.81242 66.5462 4.92589 66.1618 6.12583C65.298 8.88585 65.298 11.8439 66.1618 14.6039C66.5434 15.8024 67.1535 16.9155 67.9585 17.882C68.72 18.7813 69.6734 19.4985 70.7485 19.981ZM76.4455 16.8405C75.8028 17.1672 75.0885 17.3277 74.3678 17.3075C73.6514 17.3274 72.9415 17.1665 72.3037 16.8396C71.6658 16.5128 71.1206 16.0306 70.7183 15.4375C69.82 14.1504 69.3693 12.4545 69.3665 10.3497C69.3636 8.24497 69.8142 6.56347 70.7183 5.30522C71.1185 4.70913 71.663 4.22393 72.301 3.89471C72.9391 3.5655 73.65 3.40293 74.3678 3.42217C75.0875 3.40559 75.7999 3.56913 76.4403 3.89801C77.0807 4.22689 77.6287 4.71063 78.0346 5.30522C78.9415 6.52029 79.3965 8.20179 79.3993 10.3497C79.4022 12.4977 78.9516 14.1936 78.0475 15.4375C77.639 16.0315 77.0883 16.5139 76.4455 16.8405Z" fill="#F17300"/>
</svg>
