<svg width="1442" height="383" viewBox="0 0 1442 383" fill="none" xmlns="http://www.w3.org/2000/svg">
<path d="M1.00012 2.739C70.5266 -4.59429 254.103 7.43898 432.198 114.238C654.816 247.738 806.738 278.738 978.215 241.238C1149.69 203.738 1306.63 124.238 1441 143.238M1441 2.739C1371.47 -4.59429 1187.9 7.43898 1009.8 114.238C787.184 247.738 635.262 278.738 463.786 241.238C292.309 203.738 135.373 124.238 1 143.238" stroke="#4F4F4F" stroke-linecap="round" stroke-linejoin="round"/>
<path d="M1.00012 380.261C70.5266 387.594 254.103 375.561 432.198 268.762C654.816 135.262 806.738 104.262 978.215 141.762C1149.69 179.262 1306.63 258.762 1441 239.762M1441 380.261C1371.47 387.594 1187.9 375.561 1009.8 268.762C787.184 135.262 635.262 104.262 463.786 141.762C292.309 179.262 135.373 258.762 1 239.762" stroke="#4F4F4F" stroke-linecap="round" stroke-linejoin="round"/>
</svg>
